<?xml version="1.0" encoding="UTF-8"?>
<svg xmlns="http://www.w3.org/2000/svg" xmlns:xlink="http://www.w3.org/1999/xlink" width="75px" height="75px" viewBox="0 0 75 75" version="1.1">
<g id="surface1">
<path style=" stroke:none;fill-rule:nonzero;fill:rgb(0%,0%,0%);fill-opacity:1;" d="M 20.761719 24.179688 C 20.984375 25.828125 21.148438 28.648438 21.148438 30.855469 L 21.148438 33.300781 L 27 33.300781 L 27 30.839844 C 27 28.558594 27.195312 25.15625 27.375 24.03125 L 27.464844 23.550781 L 20.683594 23.550781 Z M 20.761719 24.179688 "/>
<path style=" stroke:none;fill-rule:nonzero;fill:rgb(0%,0%,0%);fill-opacity:1;" d="M 30.511719 24.390625 C 30.71875 26.265625 30.898438 29.566406 30.898438 31.378906 L 30.898438 33.300781 L 36.75 33.300781 L 36.75 24.269531 L 38.96875 24.34375 C 40.710938 24.40625 41.371094 24.480469 42.074219 24.734375 C 43.828125 25.363281 45.03125 26.609375 45.570312 28.351562 C 45.765625 28.964844 45.824219 29.714844 45.824219 31.230469 L 45.824219 33.300781 L 51.734375 33.300781 L 51.839844 32.609375 C 51.886719 32.234375 51.898438 31.304688 51.871094 30.539062 C 51.703125 27.496094 49.964844 25.5 46.574219 24.449219 C 44.414062 23.789062 43.003906 23.671875 36.539062 23.59375 L 30.421875 23.519531 Z M 30.511719 24.390625 "/>
<path style=" stroke:none;fill-rule:nonzero;fill:rgb(0%,0%,0%);fill-opacity:1;" d="M 21.148438 47.371094 C 21.148438 50.730469 21.074219 54.058594 21 54.75 C 20.730469 56.863281 20.039062 57.929688 18.34375 58.828125 C 17.746094 59.144531 17.550781 59.429688 17.820312 59.59375 C 17.96875 59.699219 20.21875 59.324219 21.238281 59.023438 C 23.503906 58.363281 25.351562 56.96875 26.144531 55.351562 C 26.910156 53.773438 27 52.933594 27 46.828125 L 27 41.25 L 21.148438 41.25 Z M 21.148438 47.371094 "/>
<path style=" stroke:none;fill-rule:nonzero;fill:rgb(0%,0%,0%);fill-opacity:1;" d="M 30.898438 43.605469 C 30.898438 45.929688 30.703125 49.738281 30.511719 51.179688 L 30.40625 51.898438 L 37.078125 51.898438 L 36.988281 51.179688 C 36.945312 50.789062 36.855469 48.40625 36.808594 45.855469 L 36.71875 41.25 L 30.898438 41.25 Z M 30.898438 43.605469 "/>
<path style=" stroke:none;fill-rule:nonzero;fill:rgb(0%,0%,0%);fill-opacity:1;" d="M 42.914062 42.179688 C 43.183594 42.703125 43.710938 43.980469 44.101562 45.046875 C 44.488281 46.09375 45.046875 47.324219 45.316406 47.789062 C 46.351562 49.5 48.105469 50.699219 50.429688 51.300781 C 51.613281 51.585938 54.40625 51.898438 55.996094 51.898438 C 56.730469 51.898438 56.851562 51.855469 56.851562 51.613281 C 56.851562 51.375 56.671875 51.300781 55.84375 51.148438 C 53.640625 50.773438 52.53125 49.726562 51.046875 46.648438 C 49.453125 43.351562 49.09375 42.734375 48.164062 41.730469 L 47.714844 41.25 L 42.449219 41.25 Z M 42.914062 42.179688 "/>
</g>
</svg>
