<?xml version="1.0" encoding="UTF-8"?>
<svg xmlns="http://www.w3.org/2000/svg" xmlns:xlink="http://www.w3.org/1999/xlink" width="55px" height="55px" viewBox="0 0 55 55" version="1.1">
<g id="surface1">
<path style=" stroke:none;fill-rule:nonzero;fill:rgb(0%,0%,0%);fill-opacity:1;" d="M 15.222656 17.730469 C 15.390625 18.941406 15.511719 21.011719 15.511719 22.628906 L 15.511719 24.421875 L 19.800781 24.421875 L 19.800781 22.617188 C 19.800781 20.945312 19.941406 18.445312 20.074219 17.621094 L 20.140625 17.269531 L 15.167969 17.269531 Z M 15.222656 17.730469 "/>
<path style=" stroke:none;fill-rule:nonzero;fill:rgb(0%,0%,0%);fill-opacity:1;" d="M 22.375 17.886719 C 22.527344 19.261719 22.660156 21.679688 22.660156 23.011719 L 22.660156 24.421875 L 26.949219 24.421875 L 26.949219 17.796875 L 28.578125 17.851562 C 29.855469 17.898438 30.339844 17.953125 30.855469 18.140625 C 32.140625 18.601562 33.023438 19.515625 33.417969 20.789062 C 33.5625 21.242188 33.605469 21.789062 33.605469 22.902344 L 33.605469 24.421875 L 37.9375 24.421875 L 38.015625 23.914062 C 38.050781 23.640625 38.058594 22.957031 38.039062 22.394531 C 37.917969 20.164062 36.640625 18.699219 34.15625 17.929688 C 32.570312 17.445312 31.535156 17.359375 26.796875 17.304688 L 22.308594 17.246094 Z M 22.375 17.886719 "/>
<path style=" stroke:none;fill-rule:nonzero;fill:rgb(0%,0%,0%);fill-opacity:1;" d="M 15.511719 34.738281 C 15.511719 37.203125 15.453125 39.644531 15.398438 40.148438 C 15.203125 41.699219 14.695312 42.480469 13.453125 43.140625 C 13.011719 43.371094 12.871094 43.582031 13.066406 43.703125 C 13.179688 43.78125 14.828125 43.503906 15.574219 43.285156 C 17.238281 42.800781 18.589844 41.777344 19.171875 40.589844 C 19.734375 39.433594 19.800781 38.820312 19.800781 34.34375 L 19.800781 30.25 L 15.511719 30.25 Z M 15.511719 34.738281 "/>
<path style=" stroke:none;fill-rule:nonzero;fill:rgb(0%,0%,0%);fill-opacity:1;" d="M 22.660156 31.976562 C 22.660156 33.683594 22.515625 36.476562 22.375 37.53125 L 22.296875 38.058594 L 27.191406 38.058594 L 27.125 37.53125 C 27.09375 37.246094 27.027344 35.496094 26.992188 33.628906 L 26.929688 30.25 L 22.660156 30.25 Z M 22.660156 31.976562 "/>
<path style=" stroke:none;fill-rule:nonzero;fill:rgb(0%,0%,0%);fill-opacity:1;" d="M 31.472656 30.933594 C 31.667969 31.316406 32.054688 32.253906 32.339844 33.03125 C 32.625 33.804688 33.03125 34.703125 33.230469 35.046875 C 33.988281 36.300781 35.277344 37.179688 36.980469 37.621094 C 37.851562 37.828125 39.898438 38.058594 41.0625 38.058594 C 41.601562 38.058594 41.691406 38.027344 41.691406 37.851562 C 41.691406 37.675781 41.558594 37.621094 40.953125 37.511719 C 39.335938 37.234375 38.523438 36.464844 37.433594 34.210938 C 36.265625 31.789062 36.003906 31.339844 35.320312 30.601562 L 34.992188 30.25 L 31.128906 30.25 Z M 31.472656 30.933594 "/>
</g>
</svg>
