<svg version="1.1" id="Layer_1" xmlns="http://www.w3.org/2000/svg" xmlns:xlink="http://www.w3.org/1999/xlink" x="0px" y="0px"
	 width="100%" viewBox="0 0 500 500" enable-background="new 0 0 500 500" xml:space="preserve">
<path fill="#000000" opacity="1.000000" stroke="none" 
	d="
M233.000000,501.000000 
	C155.333359,501.000000 78.166702,501.000000 1.000041,501.000000 
	C1.000028,334.333405 1.000028,167.666779 1.000014,1.000131 
	C167.666565,1.000087 334.333130,1.000087 500.999756,1.000044 
	C500.999847,167.666519 500.999847,334.333038 500.999939,500.999786 
	C411.833344,501.000000 322.666656,501.000000 233.000000,501.000000 
M139.362106,161.756683 
	C140.241470,172.568909 141.390533,183.367996 141.917923,194.197372 
	C142.368805,203.456131 142.106491,212.749649 142.677902,222.663040 
	C154.852661,222.752472 167.027374,222.853745 179.202286,222.892563 
	C179.747391,222.894302 180.294281,222.328995 180.940536,221.091858 
	C181.626358,203.414459 182.322388,185.737427 182.988144,168.059280 
	C183.102203,165.030716 183.087158,161.997314 182.547714,158.324127 
	C168.939102,158.206726 155.330215,158.033569 141.722519,158.101379 
	C140.845535,158.105759 139.977798,159.969452 139.362106,161.756683 
M318.494476,276.352692 
	C307.577728,276.248413 296.661011,276.135590 285.744019,276.084717 
	C285.442688,276.083282 285.138245,276.746643 285.014923,277.800629 
	C289.293274,288.682281 293.400787,299.635101 297.894806,310.426941 
	C303.090698,322.904114 311.365143,332.735199 323.842468,338.545593 
	C341.456116,346.747803 360.263702,347.194366 379.170898,346.860291 
	C379.719482,346.850586 380.259827,346.373230 382.257568,345.421295 
	C379.758606,344.249969 378.437195,343.216644 377.003113,343.024689 
	C366.626160,341.635406 357.122253,338.047333 351.088654,329.258759 
	C346.008240,321.858643 342.042542,313.632019 338.125061,305.510010 
	C333.091797,295.074738 328.561798,284.403625 318.494476,276.352692 
M245.322067,276.336914 
	C233.147354,276.247498 220.972672,276.146271 208.797806,276.107513 
	C208.252670,276.105774 207.705734,276.670929 207.059464,277.908020 
	C206.034241,299.592285 204.954788,321.274506 204.118866,342.966064 
	C204.068848,344.264069 205.944687,346.782837 206.961029,346.802124 
	C220.586792,347.060699 234.219070,346.975250 247.729767,346.975250 
	C247.139771,334.010040 246.403366,321.489288 246.050766,308.957764 
	C245.750931,298.302338 245.893494,287.634521 245.322067,276.336914 
M142.059860,277.908081 
	C142.040115,303.545715 142.174545,329.184998 141.894150,354.819794 
	C141.822464,361.373444 140.934525,368.020691 139.539749,374.433136 
	C137.484940,383.880005 130.667175,389.554901 122.412376,393.845947 
	C120.893867,394.635284 119.889969,396.414551 118.648529,397.736877 
	C119.055450,398.263794 119.462372,398.790741 119.869286,399.317657 
	C127.442322,397.854095 135.188004,396.979492 142.556900,394.819489 
	C167.363159,387.548309 179.558456,373.138672 180.738678,349.869507 
	C181.968063,325.631073 180.902237,301.276184 180.321823,276.336945 
	C168.147278,276.247498 155.972763,276.146271 143.798065,276.107452 
	C143.252975,276.105713 142.706085,276.670929 142.059860,277.908081 
M306.304504,220.266846 
	C307.208069,221.174515 308.100006,222.858337 309.016998,222.872101 
	C320.632874,223.046417 332.252472,222.997253 343.870697,222.933136 
	C344.553925,222.929382 345.233734,222.310837 345.995941,221.135712 
	C346.330444,216.024277 346.742462,210.916519 346.985535,205.800751 
	C347.861237,187.370193 334.487640,173.138626 319.753967,167.076660 
	C304.246033,160.696106 287.838257,158.888947 270.618103,158.280502 
	C269.967987,158.161072 269.317932,157.937546 268.667786,157.937317 
	C248.351517,157.930222 228.035172,157.927307 207.719116,158.000504 
	C206.519363,158.004822 205.321915,158.648209 204.038101,159.860168 
	C205.078751,180.582703 206.119400,201.305252 207.678192,222.663055 
	C219.852737,222.752502 232.027267,222.853760 244.201965,222.892563 
	C244.747040,222.894302 245.293915,222.329010 245.940109,221.091858 
	C245.959946,203.604462 246.101410,186.115723 245.911591,168.630615 
	C245.865784,164.411423 246.789276,162.516006 251.402924,162.928360 
	C258.329285,163.547363 265.339569,163.324371 272.240936,164.105911 
	C287.537689,165.838181 298.264038,173.723190 303.937164,188.347626 
	C307.917297,198.607788 306.855652,209.224533 306.304504,220.266846 
M199.096451,249.462570 
	C200.833710,243.934326 199.845886,243.296661 191.274002,244.501938 
	C191.274002,247.893509 191.274002,251.296158 191.274002,254.660156 
	C198.266739,255.546082 201.189636,255.366180 199.096451,249.462570 
M336.257019,254.954910 
	C337.584381,254.001297 338.974274,252.221298 340.222412,252.315674 
	C341.599182,252.419785 342.845917,254.243866 344.079468,255.261169 
	C344.079468,252.967178 343.647583,251.125381 344.162933,249.604614 
	C345.537598,245.548203 344.813812,244.116196 340.727539,244.017761 
	C338.949829,243.974945 337.170227,244.010574 334.875702,244.010574 
	C335.067047,247.922714 335.234833,251.352707 336.257019,254.954910 
M316.976105,245.670303 
	C315.988342,244.978699 315.000610,244.287109 313.838043,243.473114 
	C311.894135,247.490906 310.238190,250.913483 308.582275,254.336075 
	C308.917908,254.634903 309.253540,254.933746 309.589203,255.232574 
	C312.862091,251.908524 316.120544,252.027679 320.195709,254.535782 
	C319.131104,251.844696 318.066498,249.153610 316.976105,245.670303 
M264.998566,245.417603 
	C263.702820,245.442703 261.573395,244.999451 261.251831,245.571808 
	C259.633026,248.453445 258.485931,251.600067 257.474396,253.953094 
	C261.470490,253.953094 265.089142,253.953094 268.754364,253.953094 
	C267.647430,251.641891 266.346832,248.926331 264.998566,245.417603 
M233.010422,250.364059 
	C233.010422,251.836349 233.010422,253.308655 233.010422,254.780945 
	C233.153870,255.473190 233.297318,256.165436 233.440765,256.857697 
	C236.424103,249.788330 239.583603,253.167267 242.004089,255.051086 
	C242.004089,253.053146 241.593445,251.363190 242.079453,249.990738 
	C243.673599,245.488831 242.842239,244.056625 238.135803,244.012833 
	C236.534897,243.997940 234.933746,244.010468 233.010422,244.010468 
	C233.010422,246.178268 233.010422,247.810211 233.010422,250.364059 
M294.512726,250.975113 
	C294.649628,244.869812 292.485596,243.458832 284.237549,244.433990 
	C284.237549,247.813019 284.237549,251.215530 284.237549,255.146545 
	C287.875641,254.305832 292.193146,256.911285 294.512726,250.975113 
M171.984375,254.978790 
	C172.517776,254.625107 173.117477,254.340927 173.573547,253.906113 
	C175.966995,251.624268 177.138077,248.643616 174.464752,246.354263 
	C172.656631,244.805862 169.477814,243.966339 167.067749,244.230423 
	C163.799286,244.588577 163.791519,247.780640 164.015747,250.499710 
	C164.399261,255.150192 167.882523,254.924530 171.984375,254.978790 
M143.354706,252.833374 
	C143.098083,252.699982 142.851990,252.528732 142.579361,252.452911 
	C142.478241,252.424759 142.314865,252.620483 142.179886,252.714127 
	C143.169983,253.471359 144.218018,254.889099 145.134613,254.808670 
	C146.144745,254.720032 147.709854,253.349991 147.846512,252.372284 
	C148.222015,249.685699 147.976105,246.912231 147.976105,243.983002 
	C146.217392,244.081299 144.970428,244.151001 143.410309,244.238190 
	C146.804565,246.538025 146.999832,250.704391 143.354706,252.833374 
z"/>
<path fill="#094067" opacity="1.000000" stroke="none" 
	d="
M271.182312,158.957642 
	C287.838257,158.888947 304.246033,160.696106 319.753967,167.076660 
	C334.487640,173.138626 347.861237,187.370193 346.985535,205.800751 
	C346.742462,210.916519 346.330444,216.024277 345.493500,221.560074 
	C334.112213,221.989426 323.231537,222.095383 312.356262,221.900162 
	C310.541290,221.867584 308.749817,220.525803 306.947479,219.788971 
	C306.855652,209.224533 307.917297,198.607788 303.937164,188.347626 
	C298.264038,173.723190 287.537689,165.838181 272.240936,164.105911 
	C265.339569,163.324371 258.329285,163.547363 251.402924,162.928360 
	C246.789276,162.516006 245.865784,164.411423 245.911591,168.630615 
	C246.101410,186.115723 245.959946,203.604462 245.433746,221.552582 
	C232.338257,222.018127 219.749161,222.022949 207.160065,222.027771 
	C206.119400,201.305252 205.078751,180.582703 204.539886,159.434448 
	C227.088547,158.991699 249.135437,158.974670 271.182312,158.957642 
z"/>
<path fill="#094067" opacity="1.000000" stroke="none" 
	d="
M180.839951,276.972229 
	C180.902237,301.276184 181.968063,325.631073 180.738678,349.869507 
	C179.558456,373.138672 167.363159,387.548309 142.556900,394.819489 
	C135.188004,396.979492 127.442322,397.854095 119.869286,399.317657 
	C119.462372,398.790741 119.055450,398.263794 118.648529,397.736877 
	C119.889969,396.414551 120.893867,394.635284 122.412376,393.845947 
	C130.667175,389.554901 137.484940,383.880005 139.539749,374.433136 
	C140.934525,368.020691 141.822464,361.373444 141.894150,354.819794 
	C142.174545,329.184998 142.040115,303.545715 142.566223,277.447388 
	C155.661713,276.981873 168.250839,276.977051 180.839951,276.972229 
z"/>
<path fill="#094067" opacity="1.000000" stroke="none" 
	d="
M245.840347,276.972168 
	C245.893494,287.634521 245.750931,298.302338 246.050766,308.957764 
	C246.403366,321.489288 247.139771,334.010040 247.729767,346.975250 
	C234.219070,346.975250 220.586792,347.060699 206.961029,346.802124 
	C205.944687,346.782837 204.068848,344.264069 204.118866,342.966064 
	C204.954788,321.274506 206.034241,299.592285 207.565857,277.447388 
	C220.661621,276.981934 233.250992,276.977051 245.840347,276.972168 
z"/>
<path fill="#0A4168" opacity="1.000000" stroke="none" 
	d="
M319.088898,276.970062 
	C328.561798,284.403625 333.091797,295.074738 338.125061,305.510010 
	C342.042542,313.632019 346.008240,321.858643 351.088654,329.258759 
	C357.122253,338.047333 366.626160,341.635406 377.003113,343.024689 
	C378.437195,343.216644 379.758606,344.249969 382.257568,345.421295 
	C380.259827,346.373230 379.719482,346.850586 379.170898,346.860291 
	C360.263702,347.194366 341.456116,346.747803 323.842468,338.545593 
	C311.365143,332.735199 303.090698,322.904114 297.894806,310.426941 
	C293.400787,299.635101 289.293274,288.682281 285.405029,277.423767 
	C296.893036,277.021271 307.990967,276.995667 319.088898,276.970062 
z"/>
<path fill="#094067" opacity="1.000000" stroke="none" 
	d="
M142.159637,222.027786 
	C142.106491,212.749649 142.368805,203.456131 141.917923,194.197372 
	C141.390533,183.367996 140.241470,172.568909 139.520081,161.113953 
	C141.698608,159.987808 143.714539,159.109482 145.740540,159.085587 
	C158.203003,158.938507 170.667770,158.984421 183.131744,158.966141 
	C183.087158,161.997314 183.102203,165.030716 182.988144,168.059280 
	C182.322388,185.737427 181.626358,203.414459 180.434128,221.552521 
	C167.338364,222.018036 154.749008,222.022903 142.159637,222.027786 
z"/>
<path fill="#4BAFFC" opacity="1.000000" stroke="none" 
	d="
M199.353973,249.786926 
	C201.189636,255.366180 198.266739,255.546082 191.274002,254.660156 
	C191.274002,251.296158 191.274002,247.893509 191.274002,244.501938 
	C199.845886,243.296661 200.833710,243.934326 199.353973,249.786926 
z"/>
<path fill="#4BAFFC" opacity="1.000000" stroke="none" 
	d="
M335.829803,254.868805 
	C335.234833,251.352707 335.067047,247.922714 334.875702,244.010574 
	C337.170227,244.010574 338.949829,243.974945 340.727539,244.017761 
	C344.813812,244.116196 345.537598,245.548203 344.162933,249.604614 
	C343.647583,251.125381 344.079468,252.967178 344.079468,255.261169 
	C342.845917,254.243866 341.599182,252.419785 340.222412,252.315674 
	C338.974274,252.221298 337.584381,254.001297 335.829803,254.868805 
z"/>
<path fill="#184C70" opacity="1.000000" stroke="none" 
	d="
M270.900208,158.619080 
	C249.135437,158.974670 227.088547,158.991699 204.582520,159.001465 
	C205.321915,158.648209 206.519363,158.004822 207.719116,158.000504 
	C228.035172,157.927307 248.351517,157.930222 268.667786,157.937317 
	C269.317932,157.937546 269.967987,158.161072 270.900208,158.619080 
z"/>
<path fill="#4BAFFC" opacity="1.000000" stroke="none" 
	d="
M316.989014,246.066406 
	C318.066498,249.153610 319.131104,251.844696 320.195709,254.535782 
	C316.120544,252.027679 312.862091,251.908524 309.589203,255.232574 
	C309.253540,254.933746 308.917908,254.634903 308.582275,254.336075 
	C310.238190,250.913483 311.894135,247.490906 313.838043,243.473114 
	C315.000610,244.287109 315.988342,244.978699 316.989014,246.066406 
z"/>
<path fill="#4BAFFC" opacity="1.000000" stroke="none" 
	d="
M265.022400,245.814178 
	C266.346832,248.926331 267.647430,251.641891 268.754364,253.953094 
	C265.089142,253.953094 261.470490,253.953094 257.474396,253.953094 
	C258.485931,251.600067 259.633026,248.453445 261.251831,245.571808 
	C261.573395,244.999451 263.702820,245.442703 265.022400,245.814178 
z"/>
<path fill="#4BAFFC" opacity="1.000000" stroke="none" 
	d="
M233.010422,249.903107 
	C233.010422,247.810211 233.010422,246.178268 233.010422,244.010468 
	C234.933746,244.010468 236.534897,243.997940 238.135803,244.012833 
	C242.842239,244.056625 243.673599,245.488831 242.079453,249.990738 
	C241.593445,251.363190 242.004089,253.053146 242.004089,255.051086 
	C239.583603,253.167267 236.424103,249.788330 233.440765,256.857697 
	C233.297318,256.165436 233.153870,255.473190 233.010422,254.780945 
	C233.010422,253.308655 233.010422,251.836349 233.010422,249.903107 
M238.034546,245.445419 
	C237.057907,245.568588 236.081268,245.691742 235.188782,245.804276 
	C235.188782,247.098419 235.188782,248.375610 235.188782,250.544464 
	C237.334045,249.813858 239.046112,249.230789 240.758148,248.647720 
	C240.075287,247.451324 239.392410,246.254913 238.034546,245.445419 
z"/>
<path fill="#4BAFFC" opacity="1.000000" stroke="none" 
	d="
M294.282654,251.302444 
	C292.193146,256.911285 287.875641,254.305832 284.237549,255.146545 
	C284.237549,251.215530 284.237549,247.813019 284.237549,244.433990 
	C292.485596,243.458832 294.649628,244.869812 294.282654,251.302444 
M292.472595,248.018845 
	C290.651917,246.776215 288.831207,245.533600 286.206116,243.741974 
	C286.206116,247.872543 286.206116,250.282242 286.206116,252.816238 
	C289.712708,253.175827 292.758423,253.259933 292.472595,248.018845 
z"/>
<path fill="#4BAFFC" opacity="1.000000" stroke="none" 
	d="
M171.573486,254.989853 
	C167.882523,254.924530 164.399261,255.150192 164.015747,250.499710 
	C163.791519,247.780640 163.799286,244.588577 167.067749,244.230423 
	C169.477814,243.966339 172.656631,244.805862 174.464752,246.354263 
	C177.138077,248.643616 175.966995,251.624268 173.573547,253.906113 
	C173.117477,254.340927 172.517776,254.625107 171.573486,254.989853 
M166.502243,247.033936 
	C164.126434,248.918274 164.536133,251.094940 166.865479,252.111191 
	C168.446411,252.800949 171.054581,252.544037 172.495544,251.613922 
	C173.347778,251.063812 173.551575,247.809906 172.750580,246.782410 
	C171.437027,245.097382 169.081909,243.763870 166.502243,247.033936 
z"/>
<path fill="#184C70" opacity="1.000000" stroke="none" 
	d="
M182.839737,158.645142 
	C170.667770,158.984421 158.203003,158.938507 145.740540,159.085587 
	C143.714539,159.109482 141.698608,159.987808 139.391907,160.719727 
	C139.977798,159.969452 140.845535,158.105759 141.722519,158.101379 
	C155.330215,158.033569 168.939102,158.206726 182.839737,158.645142 
z"/>
<path fill="#184C70" opacity="1.000000" stroke="none" 
	d="
M306.625977,220.027908 
	C308.749817,220.525803 310.541290,221.867584 312.356262,221.900162 
	C323.231537,222.095383 334.112213,221.989426 345.453094,221.981415 
	C345.233734,222.310837 344.553925,222.929382 343.870697,222.933136 
	C332.252472,222.997253 320.632874,223.046417 309.016998,222.872101 
	C308.100006,222.858337 307.208069,221.174515 306.625977,220.027908 
z"/>
<path fill="#184C70" opacity="1.000000" stroke="none" 
	d="
M180.580887,276.654602 
	C168.250839,276.977051 155.661713,276.981873 142.616318,276.979401 
	C142.706085,276.670929 143.252975,276.105713 143.798065,276.107452 
	C155.972763,276.146271 168.147278,276.247498 180.580887,276.654602 
z"/>
<path fill="#184C70" opacity="1.000000" stroke="none" 
	d="
M245.581207,276.654541 
	C233.250992,276.977051 220.661621,276.981934 207.615952,276.979431 
	C207.705734,276.670929 208.252670,276.105774 208.797806,276.107513 
	C220.972672,276.146271 233.147354,276.247498 245.581207,276.654541 
z"/>
<path fill="#184C70" opacity="1.000000" stroke="none" 
	d="
M207.419128,222.345413 
	C219.749161,222.022949 232.338257,222.018127 245.383667,222.020569 
	C245.293915,222.329010 244.747040,222.894302 244.201965,222.892563 
	C232.027267,222.853760 219.852737,222.752502 207.419128,222.345413 
z"/>
<path fill="#184C70" opacity="1.000000" stroke="none" 
	d="
M142.418777,222.345413 
	C154.749008,222.022903 167.338364,222.018036 180.384033,222.020508 
	C180.294281,222.328995 179.747391,222.894302 179.202286,222.892563 
	C167.027374,222.853745 154.852661,222.752472 142.418777,222.345413 
z"/>
<path fill="#184C70" opacity="1.000000" stroke="none" 
	d="
M318.791687,276.661377 
	C307.990967,276.995667 296.893036,277.021271 285.315186,277.073456 
	C285.138245,276.746643 285.442688,276.083282 285.744019,276.084717 
	C296.661011,276.135590 307.577728,276.248413 318.791687,276.661377 
z"/>
<path fill="#4BAFFC" opacity="1.000000" stroke="none" 
	d="
M143.745544,252.902679 
	C146.999832,250.704391 146.804565,246.538025 143.410309,244.238190 
	C144.970428,244.151001 146.217392,244.081299 147.976105,243.983002 
	C147.976105,246.912231 148.222015,249.685699 147.846512,252.372284 
	C147.709854,253.349991 146.144745,254.720032 145.134613,254.808670 
	C144.218018,254.889099 143.169983,253.471359 142.179886,252.714127 
	C142.314865,252.620483 142.478241,252.424759 142.579361,252.452911 
	C142.851990,252.528732 143.098083,252.699982 143.745544,252.902679 
z"/>
<path fill="#000000" opacity="1.000000" stroke="none" 
	d="
M238.372040,245.251953 
	C239.392410,246.254913 240.075287,247.451324 240.758148,248.647720 
	C239.046112,249.230789 237.334045,249.813858 235.188782,250.544464 
	C235.188782,248.375610 235.188782,247.098419 235.188782,245.804276 
	C236.081268,245.691742 237.057907,245.568588 238.372040,245.251953 
z"/>
<path fill="#000000" opacity="1.000000" stroke="none" 
	d="
M292.705322,248.350647 
	C292.758423,253.259933 289.712708,253.175827 286.206116,252.816238 
	C286.206116,250.282242 286.206116,247.872543 286.206116,243.741974 
	C288.831207,245.533600 290.651917,246.776215 292.705322,248.350647 
z"/>
<path fill="#000000" opacity="1.000000" stroke="none" 
	d="
M166.774033,246.759857 
	C169.081909,243.763870 171.437027,245.097382 172.750580,246.782410 
	C173.551575,247.809906 173.347778,251.063812 172.495544,251.613922 
	C171.054581,252.544037 168.446411,252.800949 166.865479,252.111191 
	C164.536133,251.094940 164.126434,248.918274 166.774033,246.759857 
z"/>
</svg>