<?xml version="1.0" encoding="UTF-8"?>
<svg xmlns="http://www.w3.org/2000/svg" xmlns:xlink="http://www.w3.org/1999/xlink" width="30px" height="30px" viewBox="0 0 30 30" version="1.1">
<g id="surface1">
<path style=" stroke:none;fill-rule:nonzero;fill:rgb(0%,0%,0%);fill-opacity:1;" d="M 13.980469 30.058594 C 9.320312 30.058594 4.691406 30.058594 0.0585938 30.058594 C 0.0585938 20.058594 0.0585938 10.058594 0.0585938 0.0585938 C 10.058594 0.0585938 20.058594 0.0585938 30.058594 0.0585938 C 30.058594 10.058594 30.058594 20.058594 30.058594 30.058594 C 24.710938 30.058594 19.359375 30.058594 13.980469 30.058594 M 8.363281 9.707031 C 8.414062 10.355469 8.484375 11.003906 8.515625 11.652344 C 8.542969 12.207031 8.527344 12.765625 8.5625 13.359375 C 9.292969 13.363281 10.023438 13.371094 10.753906 13.375 C 10.785156 13.375 10.816406 13.339844 10.855469 13.265625 C 10.898438 12.203125 10.9375 11.144531 10.980469 10.082031 C 10.984375 9.902344 10.984375 9.71875 10.953125 9.5 C 10.136719 9.492188 9.320312 9.480469 8.503906 9.484375 C 8.449219 9.488281 8.398438 9.597656 8.363281 9.707031 M 19.109375 16.582031 C 18.453125 16.574219 17.800781 16.566406 17.144531 16.566406 C 17.125 16.566406 17.109375 16.605469 17.101562 16.667969 C 17.359375 17.320312 17.605469 17.976562 17.875 18.625 C 18.183594 19.375 18.683594 19.964844 19.429688 20.3125 C 20.488281 20.804688 21.617188 20.832031 22.75 20.8125 C 22.78125 20.8125 22.816406 20.78125 22.933594 20.726562 C 22.785156 20.65625 22.707031 20.59375 22.621094 20.582031 C 21.996094 20.5 21.425781 20.28125 21.066406 19.753906 C 20.761719 19.3125 20.523438 18.816406 20.289062 18.332031 C 19.984375 17.703125 19.714844 17.0625 19.109375 16.582031 M 14.71875 16.582031 C 13.988281 16.574219 13.257812 16.570312 12.527344 16.566406 C 12.496094 16.566406 12.460938 16.601562 12.421875 16.675781 C 12.363281 17.976562 12.296875 19.277344 12.246094 20.578125 C 12.242188 20.65625 12.355469 20.808594 12.417969 20.808594 C 13.234375 20.824219 14.054688 20.820312 14.863281 20.820312 C 14.828125 20.039062 14.785156 19.289062 14.761719 18.539062 C 14.746094 17.898438 14.753906 17.257812 14.71875 16.582031 M 8.523438 16.675781 C 8.523438 18.210938 8.53125 19.75 8.511719 21.289062 C 8.507812 21.683594 8.457031 22.082031 8.371094 22.464844 C 8.25 23.03125 7.839844 23.375 7.34375 23.628906 C 7.253906 23.679688 7.195312 23.785156 7.117188 23.863281 C 7.144531 23.894531 7.167969 23.925781 7.191406 23.960938 C 7.648438 23.871094 8.109375 23.820312 8.554688 23.6875 C 10.042969 23.253906 10.773438 22.386719 10.84375 20.992188 C 10.917969 19.539062 10.855469 18.078125 10.820312 16.582031 C 10.089844 16.574219 9.359375 16.570312 8.628906 16.566406 C 8.59375 16.566406 8.5625 16.601562 8.523438 16.675781 M 18.378906 13.214844 C 18.433594 13.269531 18.484375 13.371094 18.542969 13.371094 C 19.238281 13.382812 19.933594 13.378906 20.632812 13.375 C 20.671875 13.375 20.714844 13.339844 20.757812 13.269531 C 20.78125 12.960938 20.804688 12.65625 20.820312 12.347656 C 20.871094 11.242188 20.070312 10.386719 19.183594 10.023438 C 18.253906 9.640625 17.269531 9.535156 16.238281 9.496094 C 16.199219 9.488281 16.160156 9.476562 16.121094 9.476562 C 14.902344 9.476562 13.683594 9.476562 12.464844 9.480469 C 12.390625 9.480469 12.320312 9.519531 12.242188 9.589844 C 12.304688 10.835938 12.367188 12.078125 12.460938 13.359375 C 13.191406 13.363281 13.921875 13.371094 14.652344 13.375 C 14.683594 13.375 14.71875 13.339844 14.757812 13.265625 C 14.757812 12.214844 14.765625 11.167969 14.753906 10.117188 C 14.75 9.863281 14.808594 9.75 15.085938 9.777344 C 15.5 9.8125 15.921875 9.800781 16.335938 9.847656 C 17.253906 9.949219 17.894531 10.421875 18.234375 11.300781 C 18.476562 11.917969 18.410156 12.554688 18.378906 13.214844 M 11.945312 14.96875 C 12.050781 14.636719 11.992188 14.597656 11.476562 14.671875 C 11.476562 14.875 11.476562 15.078125 11.476562 15.28125 C 11.894531 15.332031 12.070312 15.320312 11.945312 14.96875 M 20.175781 15.296875 C 20.253906 15.238281 20.339844 15.132812 20.414062 15.140625 C 20.496094 15.144531 20.570312 15.253906 20.644531 15.316406 C 20.644531 15.179688 20.617188 15.066406 20.648438 14.976562 C 20.730469 14.734375 20.6875 14.648438 20.445312 14.640625 C 20.335938 14.636719 20.230469 14.640625 20.09375 14.640625 C 20.105469 14.875 20.113281 15.082031 20.175781 15.296875 M 19.019531 14.738281 C 18.960938 14.699219 18.898438 14.65625 18.832031 14.609375 C 18.714844 14.847656 18.613281 15.054688 18.515625 15.261719 C 18.535156 15.277344 18.554688 15.296875 18.574219 15.3125 C 18.773438 15.113281 18.96875 15.121094 19.210938 15.273438 C 19.148438 15.109375 19.085938 14.949219 19.019531 14.738281 M 15.898438 14.726562 C 15.820312 14.726562 15.695312 14.699219 15.675781 14.734375 C 15.578125 14.90625 15.507812 15.097656 15.449219 15.238281 C 15.6875 15.238281 15.90625 15.238281 16.125 15.238281 C 16.058594 15.097656 15.980469 14.9375 15.898438 14.726562 M 13.980469 15.023438 C 13.980469 15.109375 13.980469 15.199219 13.980469 15.285156 C 13.988281 15.328125 13.996094 15.371094 14.007812 15.410156 C 14.183594 14.988281 14.375 15.191406 14.519531 15.304688 C 14.519531 15.183594 14.496094 15.082031 14.523438 15 C 14.621094 14.730469 14.570312 14.644531 14.289062 14.640625 C 14.191406 14.640625 14.097656 14.640625 13.980469 14.640625 C 13.980469 14.769531 13.980469 14.867188 13.980469 15.023438 M 17.671875 15.058594 C 17.679688 14.691406 17.550781 14.609375 17.054688 14.667969 C 17.054688 14.867188 17.054688 15.074219 17.054688 15.308594 C 17.273438 15.257812 17.53125 15.414062 17.671875 15.058594 M 10.320312 15.296875 C 10.351562 15.277344 10.386719 15.261719 10.414062 15.234375 C 10.558594 15.097656 10.628906 14.917969 10.46875 14.78125 C 10.359375 14.6875 10.167969 14.636719 10.023438 14.652344 C 9.828125 14.675781 9.828125 14.867188 9.839844 15.03125 C 9.863281 15.308594 10.074219 15.296875 10.320312 15.296875 M 8.601562 15.171875 C 8.585938 15.160156 8.570312 15.152344 8.554688 15.148438 C 8.546875 15.144531 8.539062 15.15625 8.53125 15.164062 C 8.589844 15.207031 8.652344 15.292969 8.707031 15.289062 C 8.769531 15.28125 8.863281 15.199219 8.871094 15.140625 C 8.894531 14.980469 8.878906 14.816406 8.878906 14.640625 C 8.773438 14.644531 8.699219 14.648438 8.605469 14.652344 C 8.808594 14.792969 8.820312 15.042969 8.601562 15.171875 Z M 8.601562 15.171875 "/>
<path style=" stroke:none;fill-rule:nonzero;fill:rgb(3.529412%,25.098039%,40.392157%);fill-opacity:1;" d="M 16.269531 9.539062 C 17.269531 9.535156 18.253906 9.640625 19.183594 10.023438 C 20.070312 10.386719 20.871094 11.242188 20.820312 12.347656 C 20.804688 12.65625 20.78125 12.960938 20.730469 13.292969 C 20.046875 13.320312 19.394531 13.324219 18.742188 13.3125 C 18.632812 13.3125 18.523438 13.230469 18.417969 13.1875 C 18.410156 12.554688 18.476562 11.917969 18.234375 11.300781 C 17.894531 10.421875 17.253906 9.949219 16.335938 9.847656 C 15.921875 9.800781 15.5 9.8125 15.085938 9.777344 C 14.808594 9.75 14.75 9.863281 14.753906 10.117188 C 14.765625 11.167969 14.757812 12.214844 14.726562 13.292969 C 13.941406 13.320312 13.183594 13.320312 12.429688 13.320312 C 12.367188 12.078125 12.304688 10.835938 12.273438 9.566406 C 13.625 9.539062 14.949219 9.539062 16.269531 9.539062 Z M 16.269531 9.539062 "/>
<path style=" stroke:none;fill-rule:nonzero;fill:rgb(3.529412%,25.098039%,40.392157%);fill-opacity:1;" d="M 10.851562 16.617188 C 10.855469 18.078125 10.917969 19.539062 10.84375 20.992188 C 10.773438 22.386719 10.042969 23.253906 8.554688 23.6875 C 8.109375 23.820312 7.648438 23.871094 7.191406 23.960938 C 7.167969 23.925781 7.144531 23.894531 7.117188 23.863281 C 7.195312 23.785156 7.253906 23.679688 7.34375 23.628906 C 7.839844 23.375 8.25 23.03125 8.371094 22.464844 C 8.457031 22.082031 8.507812 21.683594 8.511719 21.289062 C 8.53125 19.75 8.523438 18.210938 8.554688 16.648438 C 9.339844 16.617188 10.09375 16.617188 10.851562 16.617188 Z M 10.851562 16.617188 "/>
<path style=" stroke:none;fill-rule:nonzero;fill:rgb(3.529412%,25.098039%,40.392157%);fill-opacity:1;" d="M 14.75 16.617188 C 14.753906 17.257812 14.746094 17.898438 14.761719 18.539062 C 14.785156 19.289062 14.828125 20.039062 14.863281 20.820312 C 14.054688 20.820312 13.234375 20.824219 12.417969 20.808594 C 12.355469 20.808594 12.242188 20.65625 12.246094 20.578125 C 12.296875 19.277344 12.363281 17.976562 12.453125 16.648438 C 13.238281 16.617188 13.996094 16.617188 14.75 16.617188 Z M 14.75 16.617188 "/>
<path style=" stroke:none;fill-rule:nonzero;fill:rgb(3.921569%,25.490196%,40.784314%);fill-opacity:1;" d="M 19.144531 16.617188 C 19.714844 17.0625 19.984375 17.703125 20.289062 18.332031 C 20.523438 18.816406 20.761719 19.3125 21.066406 19.753906 C 21.425781 20.28125 21.996094 20.5 22.621094 20.582031 C 22.707031 20.59375 22.785156 20.65625 22.933594 20.726562 C 22.816406 20.78125 22.78125 20.8125 22.75 20.8125 C 21.617188 20.832031 20.488281 20.804688 19.429688 20.3125 C 18.683594 19.964844 18.183594 19.375 17.875 18.625 C 17.605469 17.976562 17.359375 17.320312 17.125 16.644531 C 17.8125 16.621094 18.480469 16.621094 19.144531 16.617188 Z M 19.144531 16.617188 "/>
<path style=" stroke:none;fill-rule:nonzero;fill:rgb(3.529412%,25.098039%,40.392157%);fill-opacity:1;" d="M 8.53125 13.320312 C 8.527344 12.765625 8.542969 12.207031 8.515625 11.652344 C 8.484375 11.003906 8.414062 10.355469 8.371094 9.667969 C 8.5 9.597656 8.621094 9.546875 8.746094 9.546875 C 9.492188 9.535156 10.238281 9.539062 10.988281 9.539062 C 10.984375 9.71875 10.984375 9.902344 10.980469 10.082031 C 10.9375 11.144531 10.898438 12.203125 10.824219 13.292969 C 10.039062 13.320312 9.285156 13.320312 8.53125 13.320312 Z M 8.53125 13.320312 "/>
<path style=" stroke:none;fill-rule:nonzero;fill:rgb(29.411765%,68.627451%,98.823529%);fill-opacity:1;" d="M 11.960938 14.988281 C 12.070312 15.320312 11.894531 15.332031 11.476562 15.28125 C 11.476562 15.078125 11.476562 14.875 11.476562 14.671875 C 11.992188 14.597656 12.050781 14.636719 11.960938 14.988281 Z M 11.960938 14.988281 "/>
<path style=" stroke:none;fill-rule:nonzero;fill:rgb(29.411765%,68.627451%,98.823529%);fill-opacity:1;" d="M 20.148438 15.292969 C 20.113281 15.082031 20.105469 14.875 20.09375 14.640625 C 20.230469 14.640625 20.335938 14.636719 20.445312 14.640625 C 20.6875 14.648438 20.730469 14.734375 20.648438 14.976562 C 20.617188 15.066406 20.644531 15.179688 20.644531 15.316406 C 20.570312 15.253906 20.496094 15.144531 20.414062 15.140625 C 20.339844 15.132812 20.253906 15.238281 20.148438 15.292969 Z M 20.148438 15.292969 "/>
<path style=" stroke:none;fill-rule:nonzero;fill:rgb(9.411765%,29.803922%,43.921569%);fill-opacity:1;" d="M 16.253906 9.515625 C 14.949219 9.539062 13.625 9.539062 12.273438 9.539062 C 12.320312 9.519531 12.390625 9.480469 12.464844 9.480469 C 13.683594 9.476562 14.902344 9.476562 16.121094 9.476562 C 16.160156 9.476562 16.199219 9.488281 16.253906 9.515625 Z M 16.253906 9.515625 "/>
<path style=" stroke:none;fill-rule:nonzero;fill:rgb(29.411765%,68.627451%,98.823529%);fill-opacity:1;" d="M 19.019531 14.765625 C 19.085938 14.949219 19.148438 15.109375 19.210938 15.273438 C 18.96875 15.121094 18.773438 15.113281 18.574219 15.3125 C 18.554688 15.296875 18.535156 15.277344 18.515625 15.261719 C 18.613281 15.054688 18.714844 14.847656 18.832031 14.609375 C 18.898438 14.65625 18.960938 14.699219 19.019531 14.765625 Z M 19.019531 14.765625 "/>
<path style=" stroke:none;fill-rule:nonzero;fill:rgb(29.411765%,68.627451%,98.823529%);fill-opacity:1;" d="M 15.902344 14.75 C 15.980469 14.9375 16.058594 15.097656 16.125 15.238281 C 15.90625 15.238281 15.6875 15.238281 15.449219 15.238281 C 15.507812 15.097656 15.578125 14.90625 15.675781 14.734375 C 15.695312 14.699219 15.820312 14.726562 15.902344 14.75 Z M 15.902344 14.75 "/>
<path style=" stroke:none;fill-rule:nonzero;fill:rgb(29.411765%,68.627451%,98.823529%);fill-opacity:1;" d="M 13.980469 14.996094 C 13.980469 14.867188 13.980469 14.769531 13.980469 14.640625 C 14.097656 14.640625 14.191406 14.640625 14.289062 14.640625 C 14.570312 14.644531 14.621094 14.730469 14.523438 15 C 14.496094 15.082031 14.519531 15.183594 14.519531 15.304688 C 14.375 15.191406 14.183594 14.988281 14.007812 15.410156 C 13.996094 15.371094 13.988281 15.328125 13.980469 15.285156 C 13.980469 15.199219 13.980469 15.109375 13.980469 14.996094 M 14.28125 14.726562 C 14.222656 14.734375 14.164062 14.742188 14.109375 14.75 C 14.109375 14.824219 14.109375 14.902344 14.109375 15.03125 C 14.238281 14.988281 14.34375 14.953125 14.445312 14.917969 C 14.40625 14.847656 14.363281 14.773438 14.28125 14.726562 Z M 14.28125 14.726562 "/>
<path style=" stroke:none;fill-rule:nonzero;fill:rgb(29.411765%,68.627451%,98.823529%);fill-opacity:1;" d="M 17.65625 15.078125 C 17.53125 15.414062 17.273438 15.257812 17.054688 15.308594 C 17.054688 15.074219 17.054688 14.867188 17.054688 14.667969 C 17.550781 14.609375 17.679688 14.691406 17.65625 15.078125 M 17.546875 14.882812 C 17.4375 14.804688 17.328125 14.730469 17.171875 14.625 C 17.171875 14.871094 17.171875 15.015625 17.171875 15.167969 C 17.382812 15.191406 17.566406 15.195312 17.546875 14.882812 Z M 17.546875 14.882812 "/>
<path style=" stroke:none;fill-rule:nonzero;fill:rgb(29.411765%,68.627451%,98.823529%);fill-opacity:1;" d="M 10.292969 15.300781 C 10.074219 15.296875 9.863281 15.308594 9.839844 15.03125 C 9.828125 14.867188 9.828125 14.675781 10.023438 14.652344 C 10.167969 14.636719 10.359375 14.6875 10.46875 14.78125 C 10.628906 14.917969 10.558594 15.097656 10.414062 15.234375 C 10.386719 15.261719 10.351562 15.277344 10.292969 15.300781 M 9.988281 14.820312 C 9.847656 14.933594 9.871094 15.066406 10.011719 15.125 C 10.105469 15.167969 10.261719 15.152344 10.351562 15.097656 C 10.402344 15.0625 10.414062 14.867188 10.363281 14.808594 C 10.285156 14.707031 10.144531 14.625 9.988281 14.820312 Z M 9.988281 14.820312 "/>
<path style=" stroke:none;fill-rule:nonzero;fill:rgb(9.411765%,29.803922%,43.921569%);fill-opacity:1;" d="M 10.96875 9.519531 C 10.238281 9.539062 9.492188 9.535156 8.746094 9.546875 C 8.621094 9.546875 8.5 9.597656 8.363281 9.644531 C 8.398438 9.597656 8.449219 9.488281 8.503906 9.484375 C 9.320312 9.480469 10.136719 9.492188 10.96875 9.519531 Z M 10.96875 9.519531 "/>
<path style=" stroke:none;fill-rule:nonzero;fill:rgb(9.411765%,29.803922%,43.921569%);fill-opacity:1;" d="M 18.398438 13.203125 C 18.523438 13.230469 18.632812 13.3125 18.742188 13.3125 C 19.394531 13.324219 20.046875 13.320312 20.726562 13.320312 C 20.714844 13.339844 20.671875 13.375 20.632812 13.375 C 19.933594 13.378906 19.238281 13.382812 18.542969 13.371094 C 18.484375 13.371094 18.433594 13.269531 18.398438 13.203125 Z M 18.398438 13.203125 "/>
<path style=" stroke:none;fill-rule:nonzero;fill:rgb(9.411765%,29.803922%,43.921569%);fill-opacity:1;" d="M 10.835938 16.597656 C 10.09375 16.617188 9.339844 16.617188 8.558594 16.617188 C 8.5625 16.601562 8.59375 16.566406 8.628906 16.566406 C 9.359375 16.570312 10.089844 16.574219 10.835938 16.597656 Z M 10.835938 16.597656 "/>
<path style=" stroke:none;fill-rule:nonzero;fill:rgb(9.411765%,29.803922%,43.921569%);fill-opacity:1;" d="M 14.734375 16.597656 C 13.996094 16.617188 13.238281 16.617188 12.457031 16.617188 C 12.460938 16.601562 12.496094 16.566406 12.527344 16.566406 C 13.257812 16.570312 13.988281 16.574219 14.734375 16.597656 Z M 14.734375 16.597656 "/>
<path style=" stroke:none;fill-rule:nonzero;fill:rgb(9.411765%,29.803922%,43.921569%);fill-opacity:1;" d="M 12.445312 13.339844 C 13.183594 13.320312 13.941406 13.320312 14.722656 13.320312 C 14.71875 13.339844 14.683594 13.375 14.652344 13.375 C 13.921875 13.371094 13.191406 13.363281 12.445312 13.339844 Z M 12.445312 13.339844 "/>
<path style=" stroke:none;fill-rule:nonzero;fill:rgb(9.411765%,29.803922%,43.921569%);fill-opacity:1;" d="M 8.546875 13.339844 C 9.285156 13.320312 10.039062 13.320312 10.824219 13.320312 C 10.816406 13.339844 10.785156 13.375 10.753906 13.375 C 10.023438 13.371094 9.292969 13.363281 8.546875 13.339844 Z M 8.546875 13.339844 "/>
<path style=" stroke:none;fill-rule:nonzero;fill:rgb(9.411765%,29.803922%,43.921569%);fill-opacity:1;" d="M 19.128906 16.601562 C 18.480469 16.621094 17.8125 16.621094 17.117188 16.625 C 17.109375 16.605469 17.125 16.566406 17.144531 16.566406 C 17.800781 16.566406 18.453125 16.574219 19.128906 16.601562 Z M 19.128906 16.601562 "/>
<path style=" stroke:none;fill-rule:nonzero;fill:rgb(29.411765%,68.627451%,98.823529%);fill-opacity:1;" d="M 8.625 15.175781 C 8.820312 15.042969 8.808594 14.792969 8.605469 14.652344 C 8.699219 14.648438 8.773438 14.644531 8.878906 14.640625 C 8.878906 14.816406 8.894531 14.980469 8.871094 15.140625 C 8.863281 15.199219 8.769531 15.28125 8.707031 15.289062 C 8.652344 15.292969 8.589844 15.207031 8.53125 15.164062 C 8.539062 15.15625 8.546875 15.144531 8.554688 15.148438 C 8.570312 15.152344 8.585938 15.160156 8.625 15.175781 Z M 8.625 15.175781 "/>
<path style=" stroke:none;fill-rule:nonzero;fill:rgb(0%,0%,0%);fill-opacity:1;" d="M 14.300781 14.714844 C 14.363281 14.773438 14.40625 14.847656 14.445312 14.917969 C 14.34375 14.953125 14.238281 14.988281 14.109375 15.03125 C 14.109375 14.902344 14.109375 14.824219 14.109375 14.75 C 14.164062 14.742188 14.222656 14.734375 14.300781 14.714844 Z M 14.300781 14.714844 "/>
<path style=" stroke:none;fill-rule:nonzero;fill:rgb(0%,0%,0%);fill-opacity:1;" d="M 17.5625 14.902344 C 17.566406 15.195312 17.382812 15.191406 17.171875 15.167969 C 17.171875 15.015625 17.171875 14.871094 17.171875 14.625 C 17.328125 14.730469 17.4375 14.804688 17.5625 14.902344 Z M 17.5625 14.902344 "/>
<path style=" stroke:none;fill-rule:nonzero;fill:rgb(0%,0%,0%);fill-opacity:1;" d="M 10.007812 14.804688 C 10.144531 14.625 10.285156 14.707031 10.363281 14.808594 C 10.414062 14.867188 10.402344 15.0625 10.351562 15.097656 C 10.261719 15.152344 10.105469 15.167969 10.011719 15.125 C 9.871094 15.066406 9.847656 14.933594 10.007812 14.804688 Z M 10.007812 14.804688 "/>
</g>
</svg>
